<svg height="57" viewBox="0 0 248 57" width="248" xmlns="http://www.w3.org/2000/svg"><g fill="none" transform="translate(.299718 .833139)"><path d="m4.83770845 13.0759818v32.0624695c0 2.0646287-.9108656 3.0564601-3.62322097 3.0564601-.3845877 0-.72869249-.0202414-1.21448748-.0607243v7.4893394c.67302848.0708451 1.16008856.0642034 1.62390259.0749962l.19782863.0059696c7.93465152.2428975 12.91405018-2.6718724 12.91405018-10.3636264v-32.2648841zm4.93891575-3.62322093c2.8135627 0 5.0806059-2.12535309 5.0806059-4.73650116 0-2.61114808-2.2670432-4.71625971-5.0806059-4.71625971-2.7933212 0-5.08060595 2.10511163-5.08060595 4.71625971 0 2.61114807 2.28728475 4.73650116 5.08060595 4.73650116zm25.74715 35.30110273c9.7766242 0 15.7073713-6.4570251 15.7073713-16.0312347 0-9.5944511-5.9307471-16.0514762-15.7073713-16.0514762s-15.7073714 6.4570251-15.7073714 16.0514762c0 9.5742096 5.9307472 16.0312347 15.7073714 16.0312347zm.0607243-7.469098c-3.6637039 0-5.6878497-3.4815308-5.6878497-8.6228611 0-5.1615718 2.0241458-8.663344 5.6878497-8.663344 3.5422552 0 5.566401 3.5017722 5.566401 8.663344 0 5.1413303-2.0241458 8.6228611-5.566401 8.6228611zm30.6253596-10.8494215c.0202415-3.5422551 2.1253531-5.6473668 5.2627791-5.6473668 3.0984612 0 4.926948 1.9434457 4.9976748 5.2487464l.0019653 18.1301376h9.898215v-19.8163874c.0200994-7.0440273-4.2710897-11.6793212-10.8090806-11.6793212-4.6555353 0-7.9346515 2.2872847-9.3313121 6.1129203h-.3441048v-16.07171763h-9.5742096v41.45450593h9.8980729zm36.2120029 0v17.7315172h-9.898073v-31.0908795h9.412278v5.7080912h.344105c1.376419-3.7851526 4.85795-6.1129203 9.452761-6.1129203 6.537991 0 10.808938 4.6757768 10.788839 11.6793212v19.8163874h-9.898215v-17.8732074c.020241-3.4410479-1.841973-5.5056766-4.979399-5.5056766s-5.202055 2.1051117-5.222296 5.6473668z" fill="#1a202c"/><path d="m134.241467 44.7538636c-2.8419 0-5.183508-2.2320762-5.26129-5.0452619l-.001489-.2175172c-.040483-2.874287 2.348009-5.2020547 5.262779-5.2020547 2.77308 0 5.222297 2.3277677 5.262779 5.2020547-.040482 2.9147699-2.489699 5.2627791-5.262779 5.2627791z" fill="#3182ce"/><path d="m157.417953 44.6121734c4.696019 0 7.48934-2.6111481 8.74431-5.4854351h.303622v5.040123h9.796866v-41.45450593h-9.898073v15.68712993h-.202415c-1.174004-2.8540456-3.88636-5.7283326-8.784793-5.7283326-6.497508 0-12.387772 4.9996401-12.387772 15.9705103 0 10.5862825 5.566401 15.9705104 12.428255 15.9705104zm3.441048-7.7119955c-3.663704 0-5.708091-3.2588748-5.708091-8.2787563 0-4.9996402 2.024146-8.218032 5.708091-8.218032 3.623221 0 5.728333 3.137426 5.728333 8.218032 0 5.040123-2.125353 8.2787563-5.728333 8.2787563zm36.191762 7.8536857c9.776624 0 15.707371-6.4570251 15.707371-16.0312347 0-9.5944511-5.930747-16.0514762-15.707371-16.0514762s-15.707372 6.4570251-15.707372 16.0514762c0 9.5742096 5.930748 16.0312347 15.707372 16.0312347zm.060724-7.469098c-3.663704 0-5.68785-3.4815308-5.68785-8.6228611 0-5.1615718 2.024146-8.663344 5.68785-8.663344 3.542255 0 5.566401 3.5017722 5.566401 8.663344 0 5.1413303-2.024146 8.6228611-5.566401 8.6228611zm35.260654 7.469098c8.157307 0 13.521294-3.9470843 14.654815-10.0600046l-9.088414-.263139c-.769176 2.0646287-2.793322 3.1779089-5.384228 3.1779089-3.805394 0-6.153403-2.5301822-6.153403-6.3355763v-.263139h20.727252v-2.4694579c0-10.2421777-6.234369-15.869303-15.059644-15.869303-9.392037 0-15.423991 6.4367836-15.423991 16.0717176 0 9.9587973 5.950988 16.0109933 15.727613 16.0109933zm-5.97123-19.4925241c.14169-3.096943 2.590906-5.4449521 5.870022-5.4449521 3.258875 0 5.606884 2.2670432 5.647367 5.4449521z" fill="#1a202c"/></g></svg>